<?xml version="1.0" encoding="UTF-8"?>
<!DOCTYPE svg PUBLIC "-//W3C//DTD SVG 1.1//EN" "http://www.w3.org/Graphics/SVG/1.1/DTD/svg11.dtd">
<svg xmlns="http://www.w3.org/2000/svg" style="background: #ffffff; background-color: light-dark(#ffffff, var(--ge-dark-color, #121212)); color-scheme: light dark;" xmlns:xlink="http://www.w3.org/1999/xlink" version="1.1" width="482px" height="325px" viewBox="0 0 482 325"><defs/><rect fill="#ffffff" width="100%" height="100%" x="0" y="0" style="fill: light-dark(#ffffff, var(--ge-dark-color, #121212));"/><g><g data-cell-id="0"><g data-cell-id="1"><g data-cell-id="gUGWrfEi-OspUMnI-Lq--2"/><g data-cell-id="gUGWrfEi-OspUMnI-Lq--53"/><g data-cell-id="gUGWrfEi-OspUMnI-Lq--54"><g><rect x="21" y="84" width="120" height="70" rx="10.5" ry="10.5" fill="none" stroke="#009900" stroke-width="2" pointer-events="all" style="stroke: light-dark(rgb(0, 153, 0), rgb(50, 181, 50));"/></g><g><g><switch><foreignObject style="overflow: visible; text-align: left;" pointer-events="none" width="100%" height="100%" requiredFeatures="http://www.w3.org/TR/SVG11/feature#Extensibility"><div xmlns="http://www.w3.org/1999/xhtml" style="display: flex; align-items: unsafe center; justify-content: unsafe center; width: 118px; height: 1px; padding-top: 119px; margin-left: 22px;"><div style="box-sizing: border-box; font-size: 0; text-align: center; color: #000000; "><div style="display: inline-block; font-size: 12px; font-family: Helvetica; color: light-dark(#000000, #ffffff); line-height: 1.2; pointer-events: all; white-space: normal; word-wrap: normal; ">NO SQL<div>база данных</div></div></div></div></foreignObject><text x="81" y="123" fill="light-dark(#000000, #ffffff)" font-family="Helvetica" font-size="12px" text-anchor="middle">NO SQL...</text></switch></g></g></g><g data-cell-id="gUGWrfEi-OspUMnI-Lq--56"><g><path d="M 321 89 L 460 89 Q 420 119 460 149 L 321 149 Q 281 119 321 89 Z" fill="none" stroke="#009900" stroke-width="2" stroke-miterlimit="10" pointer-events="all" style="stroke: light-dark(rgb(0, 153, 0), rgb(50, 181, 50));"/></g><g><g><switch><foreignObject style="overflow: visible; text-align: left;" pointer-events="none" width="100%" height="100%" requiredFeatures="http://www.w3.org/TR/SVG11/feature#Extensibility"><div xmlns="http://www.w3.org/1999/xhtml" style="display: flex; align-items: unsafe center; justify-content: unsafe center; width: 157px; height: 1px; padding-top: 119px; margin-left: 302px;"><div style="box-sizing: border-box; font-size: 0; text-align: center; color: #000000; "><div style="display: inline-block; font-size: 12px; font-family: Helvetica; color: light-dark(#000000, #ffffff); line-height: 1.2; pointer-events: all; white-space: normal; word-wrap: normal; ">Распределённое<div>хранилище данных</div></div></div></div></foreignObject><text x="381" y="123" fill="light-dark(#000000, #ffffff)" font-family="Helvetica" font-size="12px" text-anchor="middle">Распределённое&#xa;хранилище данных</text></switch></g></g></g><g data-cell-id="gUGWrfEi-OspUMnI-Lq--57"><g><path d="M 1 67 L 1 44 L 481 44 L 481 67" fill="none" stroke="#009900" stroke-width="2" stroke-miterlimit="10" pointer-events="all" style="stroke: light-dark(rgb(0, 153, 0), rgb(50, 181, 50));"/><path d="M 1 67 L 1 324 L 481 324 L 481 67" fill="none" stroke="#009900" stroke-width="2" stroke-miterlimit="10" pointer-events="none" style="stroke: light-dark(rgb(0, 153, 0), rgb(50, 181, 50));"/><path d="M 1 67 L 481 67" fill="none" stroke="#009900" stroke-width="2" stroke-miterlimit="10" pointer-events="none" style="stroke: light-dark(rgb(0, 153, 0), rgb(50, 181, 50));"/></g><g><g><switch><foreignObject style="overflow: visible; text-align: left;" pointer-events="none" width="100%" height="100%" requiredFeatures="http://www.w3.org/TR/SVG11/feature#Extensibility"><div xmlns="http://www.w3.org/1999/xhtml" style="display: flex; align-items: unsafe center; justify-content: unsafe center; width: 478px; height: 1px; padding-top: 56px; margin-left: 2px;"><div style="box-sizing: border-box; font-size: 0; text-align: center; color: #000000; "><div style="display: inline-block; font-size: 12px; font-family: Helvetica; color: light-dark(#000000, #ffffff); line-height: 1.2; pointer-events: all; font-weight: bold; white-space: normal; word-wrap: normal; ">Data Lake</div></div></div></foreignObject><text x="241" y="59" fill="light-dark(#000000, #ffffff)" font-family="Helvetica" font-size="12px" text-anchor="middle" font-weight="bold">Data Lake</text></switch></g></g><g data-cell-id="gUGWrfEi-OspUMnI-Lq--65"><g><rect x="21" y="179" width="440" height="25" fill="none" stroke="none" pointer-events="all"/><path d="M 21 179 L 21 179 M 21 186.05 L 28.05 179 M 21 193.1 L 35.1 179 M 21 200.15 L 42.15 179 M 24.2 204 L 49.2 179 M 31.25 204 L 56.25 179 M 38.3 204 L 63.3 179 M 45.35 204 L 70.35 179 M 52.4 204 L 77.4 179 M 59.45 204 L 84.45 179 M 66.5 204 L 91.5 179 M 73.55 204 L 98.55 179 M 80.6 204 L 105.6 179 M 87.65 204 L 112.65 179 M 94.7 204 L 119.7 179 M 101.75 204 L 126.75 179 M 108.8 204 L 133.8 179 M 115.85 204 L 140.85 179 M 122.9 204 L 147.9 179 M 129.95 204 L 154.95 179 M 137 204 L 162 179 M 144.05 204 L 169.05 179 M 151.1 204 L 176.1 179 M 158.15 204 L 183.15 179 M 165.2 204 L 190.2 179 M 172.25 204 L 197.25 179 M 179.3 204 L 204.3 179 M 186.35 204 L 211.35 179 M 193.4 204 L 218.4 179 M 200.45 204 L 225.45 179 M 207.5 204 L 232.5 179 M 214.55 204 L 239.55 179 M 221.6 204 L 246.6 179 M 228.65 204 L 253.65 179 M 235.7 204 L 260.7 179 M 242.75 204 L 267.75 179 M 249.8 204 L 274.8 179 M 256.85 204 L 281.85 179 M 263.9 204 L 288.9 179 M 270.95 204 L 295.95 179 M 278 204 L 303 179 M 285.05 204 L 310.05 179 M 292.1 204 L 317.1 179 M 299.15 204 L 324.15 179 M 306.2 204 L 331.2 179 M 313.25 204 L 338.25 179 M 320.3 204 L 345.3 179 M 327.35 204 L 352.35 179 M 334.4 204 L 359.4 179 M 341.45 204 L 366.45 179 M 348.5 204 L 373.5 179 M 355.55 204 L 380.55 179 M 362.6 204 L 387.6 179 M 369.65 204 L 394.65 179 M 376.7 204 L 401.7 179 M 383.75 204 L 408.75 179 M 390.8 204 L 415.8 179 M 397.85 204 L 422.85 179 M 404.9 204 L 429.9 179 M 411.95 204 L 436.95 179 M 419 204 L 444 179 M 426.05 204 L 451.05 179 M 433.1 204 L 458.1 179 M 440.15 204 L 461 183.15 M 447.2 204 L 461 190.2 M 454.25 204 L 461 197.25" fill="none" stroke="#dddddd" stroke-width="0.2" stroke-miterlimit="10" pointer-events="all" style="stroke: light-dark(rgb(221, 221, 221), rgb(47, 47, 47));"/><path d="M 461 179 L 461 179 M 461 186.05 L 453.95 179 M 461 193.1 L 446.9 179 M 461 200.15 L 439.85 179 M 457.8 204 L 432.8 179 M 450.75 204 L 425.75 179 M 443.7 204 L 418.7 179 M 436.65 204 L 411.65 179 M 429.6 204 L 404.6 179 M 422.55 204 L 397.55 179 M 415.5 204 L 390.5 179 M 408.45 204 L 383.45 179 M 401.4 204 L 376.4 179 M 394.35 204 L 369.35 179 M 387.3 204 L 362.3 179 M 380.25 204 L 355.25 179 M 373.2 204 L 348.2 179 M 366.15 204 L 341.15 179 M 359.1 204 L 334.1 179 M 352.05 204 L 327.05 179 M 345 204 L 320 179 M 337.95 204 L 312.95 179 M 330.9 204 L 305.9 179 M 323.85 204 L 298.85 179 M 316.8 204 L 291.8 179 M 309.75 204 L 284.75 179 M 302.7 204 L 277.7 179 M 295.65 204 L 270.65 179 M 288.6 204 L 263.6 179 M 281.55 204 L 256.55 179 M 274.5 204 L 249.5 179 M 267.45 204 L 242.45 179 M 260.4 204 L 235.4 179 M 253.35 204 L 228.35 179 M 246.3 204 L 221.3 179 M 239.25 204 L 214.25 179 M 232.2 204 L 207.2 179 M 225.15 204 L 200.15 179 M 218.1 204 L 193.1 179 M 211.05 204 L 186.05 179 M 204 204 L 179 179 M 196.95 204 L 171.95 179 M 189.9 204 L 164.9 179 M 182.85 204 L 157.85 179 M 175.8 204 L 150.8 179 M 168.75 204 L 143.75 179 M 161.7 204 L 136.7 179 M 154.65 204 L 129.65 179 M 147.6 204 L 122.6 179 M 140.55 204 L 115.55 179 M 133.5 204 L 108.5 179 M 126.45 204 L 101.45 179 M 119.4 204 L 94.4 179 M 112.35 204 L 87.35 179 M 105.3 204 L 80.3 179 M 98.25 204 L 73.25 179 M 91.2 204 L 66.2 179 M 84.15 204 L 59.15 179 M 77.1 204 L 52.1 179 M 70.05 204 L 45.05 179 M 63 204 L 38 179 M 55.95 204 L 30.95 179 M 48.9 204 L 23.9 179 M 41.85 204 L 21 183.15 M 34.8 204 L 21 190.2 M 27.75 204 L 21 197.25" fill="none" stroke="#dddddd" stroke-width="0.2" stroke-miterlimit="10" pointer-events="all" style="stroke: light-dark(rgb(221, 221, 221), rgb(47, 47, 47));"/><path d="M 21 179 L 461 179 L 461 204 L 21 204 L 21 179" fill="none" stroke="#ff3333" stroke-width="2" stroke-miterlimit="10" pointer-events="all" style="stroke: light-dark(rgb(255, 51, 51), rgb(255, 119, 119));"/></g></g><g data-cell-id="gUGWrfEi-OspUMnI-Lq--70"><g><rect x="21" y="239" width="100" height="60" fill="none" stroke="#ff3333" stroke-width="2" pointer-events="all" style="stroke: light-dark(rgb(255, 51, 51), rgb(255, 119, 119));"/></g><g><g><switch><foreignObject style="overflow: visible; text-align: left;" pointer-events="none" width="100%" height="100%" requiredFeatures="http://www.w3.org/TR/SVG11/feature#Extensibility"><div xmlns="http://www.w3.org/1999/xhtml" style="display: flex; align-items: unsafe center; justify-content: unsafe center; width: 98px; height: 1px; padding-top: 269px; margin-left: 22px;"><div style="box-sizing: border-box; font-size: 0; text-align: center; color: #000000; "><div style="display: inline-block; font-size: 12px; font-family: Helvetica; color: light-dark(#000000, #ffffff); line-height: 1.2; pointer-events: all; white-space: normal; word-wrap: normal; ">ETL выгрузки данных</div></div></div></foreignObject><text x="71" y="273" fill="light-dark(#000000, #ffffff)" font-family="Helvetica" font-size="12px" text-anchor="middle">ETL выгрузки данных</text></switch></g></g></g><g data-cell-id="gUGWrfEi-OspUMnI-Lq--71"><g><rect x="135" y="239" width="100" height="60" fill="none" stroke="#ff3333" stroke-width="2" pointer-events="all" style="stroke: light-dark(rgb(255, 51, 51), rgb(255, 119, 119));"/></g><g><g><switch><foreignObject style="overflow: visible; text-align: left;" pointer-events="none" width="100%" height="100%" requiredFeatures="http://www.w3.org/TR/SVG11/feature#Extensibility"><div xmlns="http://www.w3.org/1999/xhtml" style="display: flex; align-items: unsafe center; justify-content: unsafe center; width: 98px; height: 1px; padding-top: 269px; margin-left: 136px;"><div style="box-sizing: border-box; font-size: 0; text-align: center; color: #000000; "><div style="display: inline-block; font-size: 12px; font-family: Helvetica; color: light-dark(#000000, #ffffff); line-height: 1.2; pointer-events: all; white-space: normal; word-wrap: normal; ">ETL обработки данных</div></div></div></foreignObject><text x="185" y="273" fill="light-dark(#000000, #ffffff)" font-family="Helvetica" font-size="12px" text-anchor="middle">ETL обработки данных</text></switch></g></g></g><g data-cell-id="gUGWrfEi-OspUMnI-Lq--72"><g><rect x="248" y="239" width="100" height="60" fill="none" stroke="#ff3333" stroke-width="2" pointer-events="all" style="stroke: light-dark(rgb(255, 51, 51), rgb(255, 119, 119));"/></g><g><g><switch><foreignObject style="overflow: visible; text-align: left;" pointer-events="none" width="100%" height="100%" requiredFeatures="http://www.w3.org/TR/SVG11/feature#Extensibility"><div xmlns="http://www.w3.org/1999/xhtml" style="display: flex; align-items: unsafe center; justify-content: unsafe center; width: 98px; height: 1px; padding-top: 269px; margin-left: 249px;"><div style="box-sizing: border-box; font-size: 0; text-align: center; color: #000000; "><div style="display: inline-block; font-size: 12px; font-family: Helvetica; color: light-dark(#000000, #ffffff); line-height: 1.2; pointer-events: all; white-space: normal; word-wrap: normal; ">ETL индексирования данных</div></div></div></foreignObject><text x="298" y="273" fill="light-dark(#000000, #ffffff)" font-family="Helvetica" font-size="12px" text-anchor="middle">ETL индексирования данных</text></switch></g></g></g><g data-cell-id="gUGWrfEi-OspUMnI-Lq--73"><g><rect x="361" y="239" width="100" height="60" fill="none" stroke="#ff3333" stroke-width="2" pointer-events="all" style="stroke: light-dark(rgb(255, 51, 51), rgb(255, 119, 119));"/></g><g><g><switch><foreignObject style="overflow: visible; text-align: left;" pointer-events="none" width="100%" height="100%" requiredFeatures="http://www.w3.org/TR/SVG11/feature#Extensibility"><div xmlns="http://www.w3.org/1999/xhtml" style="display: flex; align-items: unsafe center; justify-content: unsafe center; width: 98px; height: 1px; padding-top: 269px; margin-left: 362px;"><div style="box-sizing: border-box; font-size: 0; text-align: center; color: #000000; "><div style="display: inline-block; font-size: 12px; font-family: Helvetica; color: light-dark(#000000, #ffffff); line-height: 1.2; pointer-events: all; white-space: normal; word-wrap: normal; ">ETL архивирования данных</div></div></div></foreignObject><text x="411" y="273" fill="light-dark(#000000, #ffffff)" font-family="Helvetica" font-size="12px" text-anchor="middle">ETL архивирования данных</text></switch></g></g></g><g data-cell-id="gUGWrfEi-OspUMnI-Lq--78"><g transform="translate(0.5,0.5)"><path d="M 411 239 L 410.87 210.17" fill="none" stroke="#000000" stroke-miterlimit="10" pointer-events="stroke" style="stroke: light-dark(rgb(0, 0, 0), rgb(255, 255, 255));"/><path d="M 410.85 204.92 L 414.38 211.9 L 410.87 210.17 L 407.38 211.93 Z" fill="#000000" stroke="#000000" stroke-miterlimit="10" pointer-events="all" style="fill: light-dark(rgb(0, 0, 0), rgb(255, 255, 255)); stroke: light-dark(rgb(0, 0, 0), rgb(255, 255, 255));"/></g></g><g data-cell-id="gUGWrfEi-OspUMnI-Lq--79"><g transform="translate(0.5,0.5)"><path d="M 298 239 L 297.8 210.37" fill="none" stroke="#000000" stroke-miterlimit="10" pointer-events="stroke" style="stroke: light-dark(rgb(0, 0, 0), rgb(255, 255, 255));"/><path d="M 297.77 205.12 L 301.32 212.09 L 297.8 210.37 L 294.32 212.14 Z" fill="#000000" stroke="#000000" stroke-miterlimit="10" pointer-events="all" style="fill: light-dark(rgb(0, 0, 0), rgb(255, 255, 255)); stroke: light-dark(rgb(0, 0, 0), rgb(255, 255, 255));"/></g></g><g data-cell-id="gUGWrfEi-OspUMnI-Lq--80"><g transform="translate(0.5,0.5)"><path d="M 185 239 L 185.1 211.47" fill="none" stroke="#000000" stroke-miterlimit="10" pointer-events="stroke" style="stroke: light-dark(rgb(0, 0, 0), rgb(255, 255, 255));"/><path d="M 185.12 206.22 L 188.59 213.23 L 185.1 211.47 L 181.59 213.21 Z" fill="#000000" stroke="#000000" stroke-miterlimit="10" pointer-events="all" style="fill: light-dark(rgb(0, 0, 0), rgb(255, 255, 255)); stroke: light-dark(rgb(0, 0, 0), rgb(255, 255, 255));"/></g></g><g data-cell-id="gUGWrfEi-OspUMnI-Lq--81"><g transform="translate(0.5,0.5)"><path d="M 71 239 L 71.13 210.37" fill="none" stroke="#000000" stroke-miterlimit="10" pointer-events="stroke" style="stroke: light-dark(rgb(0, 0, 0), rgb(255, 255, 255));"/><path d="M 71.15 205.12 L 74.62 212.13 L 71.13 210.37 L 67.62 212.1 Z" fill="#000000" stroke="#000000" stroke-miterlimit="10" pointer-events="all" style="fill: light-dark(rgb(0, 0, 0), rgb(255, 255, 255)); stroke: light-dark(rgb(0, 0, 0), rgb(255, 255, 255));"/></g></g></g><g data-cell-id="gUGWrfEi-OspUMnI-Lq--64"><g><rect x="161" y="84" width="120" height="70" rx="10.5" ry="10.5" fill="none" stroke="#009900" stroke-width="2" pointer-events="all" style="stroke: light-dark(rgb(0, 153, 0), rgb(50, 181, 50));"/></g><g><g><switch><foreignObject style="overflow: visible; text-align: left;" pointer-events="none" width="100%" height="100%" requiredFeatures="http://www.w3.org/TR/SVG11/feature#Extensibility"><div xmlns="http://www.w3.org/1999/xhtml" style="display: flex; align-items: unsafe center; justify-content: unsafe center; width: 118px; height: 1px; padding-top: 119px; margin-left: 162px;"><div style="box-sizing: border-box; font-size: 0; text-align: center; color: #000000; "><div style="display: inline-block; font-size: 12px; font-family: Helvetica; color: light-dark(#000000, #ffffff); line-height: 1.2; pointer-events: all; white-space: normal; word-wrap: normal; ">Каталог метаданных</div></div></div></foreignObject><text x="221" y="123" fill="light-dark(#000000, #ffffff)" font-family="Helvetica" font-size="12px" text-anchor="middle">Каталог метаданных</text></switch></g></g></g><g data-cell-id="gUGWrfEi-OspUMnI-Lq--67"><g transform="translate(0.5,0.5)"><path d="M 81 154 L 81.21 172.56" fill="none" stroke="#000000" stroke-miterlimit="10" pointer-events="stroke" style="stroke: light-dark(rgb(0, 0, 0), rgb(255, 255, 255));"/><path d="M 81.27 177.81 L 77.69 170.85 L 81.21 172.56 L 84.69 170.77 Z" fill="#000000" stroke="#000000" stroke-miterlimit="10" pointer-events="all" style="fill: light-dark(rgb(0, 0, 0), rgb(255, 255, 255)); stroke: light-dark(rgb(0, 0, 0), rgb(255, 255, 255));"/></g></g><g data-cell-id="gUGWrfEi-OspUMnI-Lq--68"><g transform="translate(0.5,0.5)"><path d="M 221 154 L 221.48 172.33" fill="none" stroke="#000000" stroke-miterlimit="10" pointer-events="stroke" style="stroke: light-dark(rgb(0, 0, 0), rgb(255, 255, 255));"/><path d="M 221.61 177.58 L 217.93 170.68 L 221.48 172.33 L 224.93 170.49 Z" fill="#000000" stroke="#000000" stroke-miterlimit="10" pointer-events="all" style="fill: light-dark(rgb(0, 0, 0), rgb(255, 255, 255)); stroke: light-dark(rgb(0, 0, 0), rgb(255, 255, 255));"/></g></g><g data-cell-id="gUGWrfEi-OspUMnI-Lq--69"><g transform="translate(0.5,0.5)"><path d="M 380.5 149 L 380.48 171.68" fill="none" stroke="#000000" stroke-miterlimit="10" pointer-events="stroke" style="stroke: light-dark(rgb(0, 0, 0), rgb(255, 255, 255));"/><path d="M 380.48 176.93 L 376.99 169.93 L 380.48 171.68 L 383.99 169.93 Z" fill="#000000" stroke="#000000" stroke-miterlimit="10" pointer-events="all" style="fill: light-dark(rgb(0, 0, 0), rgb(255, 255, 255)); stroke: light-dark(rgb(0, 0, 0), rgb(255, 255, 255));"/></g></g><g data-cell-id="gUGWrfEi-OspUMnI-Lq--82"/><g data-cell-id="gUGWrfEi-OspUMnI-Lq--83"/><g data-cell-id="gUGWrfEi-OspUMnI-Lq--84"/><g data-cell-id="gUGWrfEi-OspUMnI-Lq--85"><g data-cell-id="gUGWrfEi-OspUMnI-Lq--105"/><g data-cell-id="gUGWrfEi-OspUMnI-Lq--106"/><g data-cell-id="gUGWrfEi-OspUMnI-Lq--107"/><g data-cell-id="gUGWrfEi-OspUMnI-Lq--108"/><g data-cell-id="gUGWrfEi-OspUMnI-Lq--109"/></g><g data-cell-id="gUGWrfEi-OspUMnI-Lq--110"/><g data-cell-id="gUGWrfEi-OspUMnI-Lq--112"/><g data-cell-id="gUGWrfEi-OspUMnI-Lq--113"/><g data-cell-id="gUGWrfEi-OspUMnI-Lq--114"/><g data-cell-id="gUGWrfEi-OspUMnI-Lq--115"/><g data-cell-id="gUGWrfEi-OspUMnI-Lq--116"/><g data-cell-id="gUGWrfEi-OspUMnI-Lq--117"/><g data-cell-id="gUGWrfEi-OspUMnI-Lq--118"/><g data-cell-id="gUGWrfEi-OspUMnI-Lq--119"/><g data-cell-id="gUGWrfEi-OspUMnI-Lq--120"/><g data-cell-id="gUGWrfEi-OspUMnI-Lq--121"/><g data-cell-id="gUGWrfEi-OspUMnI-Lq--122"><g data-cell-id="gUGWrfEi-OspUMnI-Lq--3"/><g data-cell-id="gUGWrfEi-OspUMnI-Lq--4"/><g data-cell-id="gUGWrfEi-OspUMnI-Lq--16"><g data-cell-id="gUGWrfEi-OspUMnI-Lq--17"/></g><g data-cell-id="gUGWrfEi-OspUMnI-Lq--1"/><g data-cell-id="gUGWrfEi-OspUMnI-Lq--8"/><g data-cell-id="gUGWrfEi-OspUMnI-Lq--5"/><g data-cell-id="gUGWrfEi-OspUMnI-Lq--6"/><g data-cell-id="gUGWrfEi-OspUMnI-Lq--11"><g data-cell-id="gUGWrfEi-OspUMnI-Lq--12"/></g><g data-cell-id="gUGWrfEi-OspUMnI-Lq--9"/><g data-cell-id="gUGWrfEi-OspUMnI-Lq--13"><g data-cell-id="gUGWrfEi-OspUMnI-Lq--14"/></g><g data-cell-id="gUGWrfEi-OspUMnI-Lq--15"/><g data-cell-id="gUGWrfEi-OspUMnI-Lq--19"/><g data-cell-id="gUGWrfEi-OspUMnI-Lq--18"/><g data-cell-id="gUGWrfEi-OspUMnI-Lq--20"><g data-cell-id="gUGWrfEi-OspUMnI-Lq--31"><g data-cell-id="gUGWrfEi-OspUMnI-Lq--21"/><g data-cell-id="gUGWrfEi-OspUMnI-Lq--28"/></g><g data-cell-id="gUGWrfEi-OspUMnI-Lq--35"><g data-cell-id="gUGWrfEi-OspUMnI-Lq--36"/><g data-cell-id="gUGWrfEi-OspUMnI-Lq--37"/></g></g><g data-cell-id="gUGWrfEi-OspUMnI-Lq--24"/><g data-cell-id="gUGWrfEi-OspUMnI-Lq--32"><g data-cell-id="gUGWrfEi-OspUMnI-Lq--33"/><g data-cell-id="gUGWrfEi-OspUMnI-Lq--34"/></g><g data-cell-id="gUGWrfEi-OspUMnI-Lq--38"/><g data-cell-id="gUGWrfEi-OspUMnI-Lq--39"/><g data-cell-id="gUGWrfEi-OspUMnI-Lq--40"><g data-cell-id="gUGWrfEi-OspUMnI-Lq--41"><g data-cell-id="gUGWrfEi-OspUMnI-Lq--42"/><g data-cell-id="gUGWrfEi-OspUMnI-Lq--43"/></g><g data-cell-id="gUGWrfEi-OspUMnI-Lq--44"><g data-cell-id="gUGWrfEi-OspUMnI-Lq--45"/><g data-cell-id="gUGWrfEi-OspUMnI-Lq--46"/></g></g><g data-cell-id="gUGWrfEi-OspUMnI-Lq--47"><g data-cell-id="gUGWrfEi-OspUMnI-Lq--48"/><g data-cell-id="gUGWrfEi-OspUMnI-Lq--49"/></g><g data-cell-id="gUGWrfEi-OspUMnI-Lq--50"/><g data-cell-id="gUGWrfEi-OspUMnI-Lq--51"/><g data-cell-id="gUGWrfEi-OspUMnI-Lq--52"/></g><g data-cell-id="3Cmft6sJoLuO9zCo7RpY-1"/><g data-cell-id="3Cmft6sJoLuO9zCo7RpY-3"><g transform="translate(0.5,0.5)"><rect x="111" y="0" width="370" height="30" fill="none" stroke="none" pointer-events="all"/></g><g><g><switch><foreignObject style="overflow: visible; text-align: left;" pointer-events="none" width="100%" height="100%" requiredFeatures="http://www.w3.org/TR/SVG11/feature#Extensibility"><div xmlns="http://www.w3.org/1999/xhtml" style="display: flex; align-items: unsafe center; justify-content: unsafe flex-start; width: 368px; height: 1px; padding-top: 15px; margin-left: 113px;"><div style="box-sizing: border-box; font-size: 0; text-align: left; color: #000000; "><div style="display: inline-block; font-size: 12px; font-family: Helvetica; color: light-dark(#000000, #ededed); line-height: 1.2; pointer-events: all; white-space: normal; word-wrap: normal; ">Data Lake - Единое хранилище телеметрии и инцидентов<div>ETL - Выгрузка из источников, очистка и загрузка в хранилище</div></div></div></div></foreignObject><text x="113" y="19" fill="#000000" font-family="Helvetica" font-size="12px">Data Lake - Единое хранилище телеметрии и инцидентов...</text></switch></g></g></g></g></g></g></svg>